<svg id="svg" version="1.1" xmlns="http://www.w3.org/2000/svg" xmlns:xlink="http://www.w3.org/1999/xlink" width="400" height="400" viewBox="0, 0, 400,400"><g id="svgg"><path id="path0" d="M194.758 86.035 C 194.443 86.519,193.367 89.023,192.366 91.602 C 190.103 97.434,190.789 96.887,184.702 97.722 C 178.462 98.579,178.241 98.644,177.873 99.727 C 177.363 101.229,177.665 101.671,182.200 106.055 L 186.644 110.352 185.640 116.358 C 184.127 125.412,184.827 125.909,192.377 121.143 C 198.375 117.356,196.991 117.434,203.183 120.537 C 211.155 124.532,211.861 123.908,209.549 114.912 L 208.052 109.086 211.932 104.913 C 218.539 97.808,218.336 97.238,208.922 96.456 L 203.242 95.984 200.742 90.925 C 199.367 88.143,197.946 85.706,197.584 85.511 C 196.469 84.909,195.357 85.116,194.758 86.035 M148.270 106.083 C 147.817 106.535,147.656 107.493,147.656 109.733 C 147.656 113.180,147.721 113.084,143.848 115.396 C 140.433 117.434,140.536 118.002,144.668 119.939 L 147.930 121.467 148.390 124.257 C 149.242 129.412,149.955 129.655,153.330 125.935 L 155.684 123.341 159.103 123.796 C 164.004 124.448,164.311 123.935,161.719 119.438 C 159.837 116.175,159.832 116.068,161.394 112.533 C 163.154 108.549,162.728 108.147,158.010 109.330 L 154.634 110.177 152.065 107.823 C 149.242 105.236,149.156 105.196,148.270 106.083 M236.572 111.816 C 235.114 113.136,222.656 135.181,222.656 136.443 C 222.656 140.132,226.498 139.911,228.851 136.087 L 230.077 134.095 236.035 135.122 L 241.992 136.150 242.668 138.250 C 243.872 141.996,246.928 143.209,248.423 140.535 C 249.287 138.988,243.016 113.737,241.339 112.012 C 240.002 110.636,237.968 110.553,236.572 111.816 M240.409 130.031 C 240.218 130.226,233.917 129.265,233.344 128.953 C 233.053 128.795,233.793 127.101,235.483 124.059 L 238.067 119.407 239.310 124.645 C 239.994 127.526,240.489 129.949,240.409 130.031 M194.591 140.439 C 193.946 140.982,192.059 143.663,190.397 146.397 C 170.880 178.505,166.496 179.831,133.984 163.461 C 126.173 159.528,123.975 158.973,123.289 160.760 C 122.790 162.062,124.368 163.894,135.506 174.949 C 157.414 196.694,165.281 210.566,167.184 230.809 C 167.968 239.144,170.425 239.210,171.669 230.931 C 172.778 223.549,174.745 215.542,175.630 214.807 C 176.668 213.946,178.122 214.899,182.543 219.336 C 185.004 221.807,187.267 223.828,187.572 223.828 C 189.436 223.828,189.463 222.039,187.727 213.437 C 184.000 194.977,184.466 190.110,192.486 163.672 C 198.629 143.419,199.255 136.515,194.591 140.439 M156.350 141.434 C 144.247 146.199,145.512 163.808,158.189 167.025 C 171.032 170.284,180.090 155.115,171.319 145.036 C 167.983 141.201,161.129 139.552,156.350 141.434 M261.538 146.191 C 260.485 147.111,255.078 165.984,255.078 168.739 C 255.078 172.507,267.034 175.128,271.200 172.272 C 273.976 170.370,275.263 166.379,274.042 163.465 C 273.435 162.018,273.435 161.888,274.043 161.523 C 276.759 159.894,277.735 158.123,277.733 154.824 C 277.730 150.047,274.147 147.260,266.211 145.864 C 262.327 145.180,262.727 145.152,261.538 146.191 M270.184 152.333 C 274.818 154.383,272.135 158.477,266.957 157.256 L 263.982 156.555 264.223 155.350 C 264.356 154.687,264.650 153.455,264.877 152.612 L 265.289 151.081 266.905 151.339 C 267.794 151.481,269.269 151.929,270.184 152.333 M216.131 153.948 C 211.746 155.216,213.437 158.984,218.390 158.984 C 221.491 158.984,223.145 159.977,223.145 161.837 C 223.145 164.075,222.076 164.636,213.256 167.024 C 205.630 169.089,204.688 169.627,204.688 171.916 C 204.688 173.716,204.855 173.843,212.543 177.870 C 218.569 181.027,219.231 181.222,220.616 180.251 C 222.997 178.584,221.835 176.883,216.221 173.816 L 213.107 172.115 214.464 171.784 C 224.643 169.302,226.875 168.168,228.302 164.753 C 230.965 158.379,223.556 151.801,216.131 153.948 M267.770 162.986 C 268.847 163.552,269.128 164.059,269.135 165.453 C 269.148 168.028,267.194 168.940,263.495 168.087 C 260.668 167.434,260.768 167.531,261.267 165.944 C 261.491 165.232,261.863 163.919,262.092 163.027 L 262.509 161.405 264.748 161.989 C 265.979 162.311,267.339 162.759,267.770 162.986 M240.326 185.570 C 238.231 185.983,237.891 186.197,237.891 187.102 C 237.891 188.006,239.142 188.426,244.336 189.264 C 251.083 190.353,253.370 191.992,254.319 196.420 C 254.850 198.894,255.801 199.603,257.285 198.630 C 259.195 197.379,259.927 193.998,258.772 191.763 C 258.177 190.612,258.184 190.591,259.326 190.193 C 263.227 188.833,259.641 185.592,254.729 186.038 C 253.382 186.160,251.485 186.023,250.142 185.707 C 247.639 185.118,242.950 185.053,240.326 185.570 M197.065 195.328 C 196.604 196.782,197.245 199.549,200.005 208.008 C 204.680 222.336,204.638 229.143,199.799 241.142 C 197.679 246.401,198.605 247.054,202.930 243.353 C 209.202 237.985,210.569 238.290,214.052 245.828 C 216.087 250.233,217.090 250.305,217.772 246.094 C 218.285 242.932,219.968 238.156,221.902 234.375 C 225.051 228.219,227.791 225.856,239.805 218.935 C 245.395 215.714,247.495 213.013,245.112 212.107 C 244.078 211.714,243.506 211.803,232.813 214.014 C 216.784 217.328,213.494 216.096,205.355 203.729 C 203.806 201.376,201.836 198.388,200.977 197.089 C 199.228 194.445,197.581 193.704,197.065 195.328 M218.795 195.096 C 213.748 196.734,211.454 202.630,213.982 207.469 C 217.255 213.734,226.651 213.598,229.639 207.242 C 232.905 200.293,226.137 192.712,218.795 195.096 M129.232 198.426 L 127.539 200.758 124.364 200.770 C 119.964 200.786,119.656 201.218,121.813 204.343 C 123.715 207.100,123.665 206.708,122.592 210.399 C 121.461 214.293,121.721 214.537,125.560 213.183 L 128.473 212.156 130.982 214.093 C 134.241 216.609,134.611 216.457,134.965 212.459 L 135.240 209.347 137.518 207.801 C 141.052 205.400,140.999 204.955,137.000 203.498 C 133.923 202.377,134.081 202.546,133.340 199.581 C 132.270 195.293,131.636 195.115,129.232 198.426 " stroke="none" fill="#f8816a" fill-rule="evenodd"></path><path id="path1" d="M140.149 237.816 C 138.903 237.919,138.268 238.389,135.664 241.136 C 133.996 242.896,132.980 243.896,133.406 243.359 L 134.180 242.383 133.310 243.119 C 132.832 243.523,132.506 243.963,132.585 244.095 C 132.665 244.228,132.017 245.127,131.145 246.094 C 130.273 247.061,129.808 247.500,130.112 247.070 C 130.623 246.348,130.612 246.330,129.971 246.833 C 129.590 247.132,129.365 247.464,129.471 247.570 C 129.798 247.897,128.089 250.024,127.695 249.780 C 127.491 249.654,127.368 249.696,127.421 249.873 C 127.593 250.448,126.099 252.345,125.678 252.085 C 125.454 251.946,125.367 251.991,125.486 252.186 C 125.605 252.380,125.169 253.154,124.518 253.906 C 123.867 254.658,123.474 255.010,123.644 254.688 C 123.827 254.341,123.808 254.235,123.598 254.427 C 123.402 254.606,123.241 254.870,123.239 255.013 C 123.233 255.594,121.980 257.006,121.710 256.736 C 121.550 256.576,121.471 256.621,121.535 256.836 C 121.719 257.459,120.703 259.030,120.283 258.771 C 120.074 258.642,119.949 258.681,120.007 258.858 C 120.173 259.372,118.905 260.963,118.585 260.642 C 118.425 260.482,118.346 260.527,118.410 260.742 C 118.594 261.365,117.578 262.936,117.158 262.677 C 116.949 262.548,116.810 262.587,116.849 262.764 C 116.983 263.364,116.327 264.450,115.965 264.227 C 115.767 264.104,115.638 264.149,115.677 264.326 C 115.825 264.989,115.136 266.002,114.705 265.755 C 114.459 265.615,114.388 265.644,114.547 265.819 C 114.707 265.995,114.641 266.375,114.402 266.663 C 114.047 267.091,114.355 267.189,116.065 267.193 C 117.545 267.198,117.991 267.309,117.578 267.571 C 117.198 267.812,118.213 267.857,120.472 267.698 C 122.774 267.536,123.869 267.587,123.708 267.848 C 123.551 268.102,124.154 268.176,125.404 268.056 C 126.597 267.941,127.344 268.024,127.344 268.273 C 127.344 268.520,127.971 268.592,128.966 268.458 C 130.086 268.308,130.507 268.373,130.324 268.667 C 130.144 268.960,130.494 269.024,131.437 268.871 C 132.208 268.746,132.813 268.812,132.813 269.022 C 132.813 269.228,133.365 269.315,134.040 269.216 C 134.791 269.106,135.175 269.186,135.028 269.422 C 134.885 269.654,135.176 269.735,135.754 269.625 C 136.285 269.523,136.719 269.612,136.719 269.822 C 136.719 270.032,137.184 270.115,137.753 270.006 C 138.388 269.885,138.695 269.960,138.546 270.199 C 138.400 270.436,138.686 270.517,139.270 270.406 C 139.800 270.304,140.234 270.393,140.234 270.603 C 140.234 270.814,140.700 270.896,141.269 270.788 C 141.903 270.666,142.210 270.741,142.062 270.981 C 141.914 271.220,142.217 271.296,142.843 271.176 C 143.469 271.056,143.772 271.132,143.625 271.371 C 143.477 271.610,143.780 271.686,144.406 271.567 C 145.032 271.447,145.335 271.523,145.187 271.762 C 145.039 272.001,145.342 272.077,145.968 271.957 C 146.625 271.832,146.900 271.909,146.737 272.173 C 146.576 272.433,146.792 272.503,147.326 272.363 C 147.866 272.222,148.077 272.292,147.912 272.558 C 147.750 272.820,147.945 272.898,148.437 272.770 C 148.892 272.651,149.219 272.757,149.219 273.024 C 149.219 273.277,149.376 273.386,149.569 273.267 C 150.068 272.959,152.369 273.470,152.142 273.839 C 152.037 274.008,152.331 274.047,152.795 273.925 C 153.335 273.784,153.545 273.854,153.381 274.121 C 153.216 274.387,153.427 274.457,153.967 274.316 C 154.507 274.175,154.717 274.245,154.553 274.511 C 154.388 274.778,154.599 274.848,155.139 274.707 C 155.767 274.543,155.901 274.617,155.665 274.999 C 155.460 275.331,155.501 275.417,155.781 275.244 C 156.335 274.901,158.261 275.372,158.005 275.786 C 157.898 275.958,158.191 276.000,158.654 275.879 C 159.194 275.737,159.405 275.808,159.240 276.074 C 159.076 276.340,159.286 276.410,159.826 276.269 C 160.399 276.119,160.581 276.192,160.392 276.496 C 160.213 276.787,160.329 276.862,160.722 276.712 C 161.055 276.584,161.328 276.654,161.328 276.868 C 161.328 277.082,161.548 277.249,161.816 277.239 C 163.034 277.194,163.701 277.372,163.504 277.690 C 163.386 277.881,163.507 278.029,163.774 278.019 C 165.027 277.974,165.650 278.159,165.432 278.511 C 165.296 278.733,165.452 278.798,165.800 278.665 C 166.133 278.537,166.406 278.621,166.406 278.852 C 166.406 279.084,166.698 279.160,167.056 279.023 C 167.461 278.867,167.610 278.929,167.451 279.186 C 167.311 279.413,167.414 279.591,167.680 279.582 C 169.016 279.534,169.557 279.720,169.299 280.138 C 169.136 280.402,169.191 280.484,169.429 280.336 C 169.954 280.012,172.656 281.128,172.656 281.669 C 172.656 281.894,172.832 281.969,173.047 281.836 C 173.262 281.703,173.438 281.791,173.438 282.031 C 173.438 282.271,173.613 282.359,173.828 282.227 C 174.043 282.094,174.219 282.182,174.219 282.422 C 174.219 282.662,174.395 282.750,174.609 282.617 C 174.824 282.484,175.000 282.562,175.000 282.789 C 175.000 283.017,175.132 283.161,175.293 283.110 C 175.935 282.907,178.104 284.095,177.862 284.518 C 177.723 284.762,177.747 284.837,177.915 284.685 C 178.303 284.335,181.250 285.814,181.250 286.359 C 181.250 286.582,181.417 286.662,181.621 286.536 C 181.825 286.409,182.167 286.633,182.381 287.033 C 182.677 287.587,182.635 287.760,182.205 287.760 C 181.895 287.760,181.641 287.585,181.641 287.370 C 181.641 287.155,181.532 287.088,181.398 287.221 C 181.125 287.494,176.435 285.235,176.244 284.739 C 176.177 284.563,175.840 284.527,175.497 284.659 C 175.112 284.806,174.970 284.739,175.127 284.485 C 175.267 284.258,175.164 284.080,174.898 284.090 C 173.645 284.135,173.022 283.950,173.239 283.598 C 173.372 283.384,173.230 283.307,172.922 283.425 C 172.616 283.543,172.122 283.395,171.824 283.097 C 171.526 282.798,171.084 282.620,170.843 282.701 C 170.601 282.781,170.161 282.606,169.866 282.310 C 169.571 282.015,169.111 281.846,168.844 281.935 C 168.578 282.024,168.359 281.896,168.359 281.650 C 168.359 281.405,168.215 281.293,168.038 281.402 C 167.611 281.666,162.038 279.889,162.341 279.586 C 162.471 279.456,162.181 279.453,161.696 279.580 C 161.126 279.729,160.906 279.664,161.072 279.395 C 161.234 279.133,161.040 279.055,160.547 279.184 C 160.117 279.296,159.766 279.208,159.766 278.988 C 159.766 278.769,159.387 278.688,158.923 278.809 C 158.407 278.944,158.176 278.876,158.326 278.634 C 158.477 278.388,158.181 278.312,157.547 278.433 C 156.921 278.553,156.618 278.477,156.766 278.238 C 156.912 278.002,156.627 277.920,156.043 278.032 C 155.512 278.133,155.078 278.044,155.078 277.834 C 155.078 277.624,154.613 277.541,154.044 277.650 C 153.409 277.771,153.102 277.696,153.250 277.457 C 153.398 277.218,153.095 277.142,152.469 277.262 C 151.772 277.395,151.533 277.317,151.719 277.016 C 151.911 276.705,151.621 276.648,150.740 276.825 C 149.852 277.002,149.568 276.946,149.763 276.629 C 149.957 276.315,149.687 276.254,148.848 276.422 C 148.187 276.554,147.656 276.494,147.656 276.288 C 147.656 276.084,147.104 275.998,146.429 276.097 C 145.641 276.212,145.291 276.132,145.452 275.871 C 145.618 275.603,145.153 275.539,144.081 275.683 C 142.992 275.829,142.542 275.764,142.714 275.487 C 142.885 275.210,142.435 275.146,141.347 275.292 C 140.424 275.416,139.818 275.358,139.942 275.157 C 140.064 274.960,139.379 274.867,138.389 274.946 C 137.292 275.033,136.710 274.940,136.857 274.701 C 137.007 274.459,136.425 274.392,135.286 274.520 C 134.183 274.645,133.567 274.578,133.708 274.351 C 133.849 274.122,133.019 274.043,131.563 274.149 C 130.098 274.255,129.277 274.176,129.420 273.945 C 129.565 273.710,128.462 273.638,126.489 273.752 C 123.968 273.898,123.389 273.832,123.637 273.430 C 123.881 273.035,123.616 272.980,122.424 273.177 C 121.585 273.316,120.210 273.431,119.368 273.433 C 117.955 273.437,117.569 273.713,114.312 277.051 C 112.373 279.038,110.681 280.632,110.553 280.594 C 110.424 280.555,110.393 281.150,110.482 281.916 C 110.572 282.683,110.488 283.213,110.296 283.094 C 110.104 282.975,110.014 283.587,110.097 284.454 C 110.185 285.378,110.061 286.146,109.798 286.308 C 109.551 286.461,109.461 286.879,109.599 287.238 C 109.821 287.817,110.803 287.898,118.304 287.954 C 123.528 287.994,125.937 288.121,124.609 288.288 C 123.428 288.436,126.152 288.481,130.664 288.388 C 135.976 288.278,138.679 288.351,138.333 288.594 C 137.983 288.841,139.055 288.909,141.458 288.792 C 143.825 288.677,144.930 288.745,144.588 288.985 C 144.243 289.226,145.058 289.294,146.932 289.180 C 148.964 289.057,149.635 289.123,149.226 289.406 C 148.817 289.689,149.301 289.738,150.886 289.575 C 152.330 289.426,153.125 289.489,153.125 289.752 C 153.125 290.003,153.728 290.079,154.688 289.950 C 155.547 289.835,156.250 289.905,156.250 290.105 C 156.250 290.304,156.865 290.396,157.617 290.309 C 158.369 290.221,158.984 290.309,158.984 290.504 C 158.984 290.699,159.624 290.784,160.405 290.693 C 161.346 290.583,161.739 290.668,161.568 290.944 C 161.395 291.223,161.764 291.286,162.687 291.137 C 163.458 291.011,164.063 291.078,164.063 291.287 C 164.063 291.493,164.615 291.581,165.290 291.481 C 166.041 291.371,166.425 291.451,166.278 291.688 C 166.135 291.919,166.426 292.001,167.004 291.890 C 167.535 291.789,167.969 291.878,167.969 292.088 C 167.969 292.298,168.408 292.386,168.945 292.283 C 169.482 292.180,169.922 292.268,169.922 292.478 C 169.922 292.689,170.387 292.771,170.956 292.663 C 171.622 292.535,171.900 292.612,171.737 292.876 C 171.579 293.132,171.778 293.209,172.265 293.082 C 172.695 292.970,173.047 293.057,173.047 293.277 C 173.047 293.497,173.398 293.585,173.828 293.473 C 174.258 293.360,174.609 293.448,174.609 293.668 C 174.609 293.888,174.988 293.968,175.452 293.847 C 175.991 293.706,176.202 293.776,176.037 294.043 C 175.872 294.309,176.083 294.379,176.623 294.238 C 177.251 294.074,177.385 294.148,177.149 294.530 C 176.941 294.866,176.985 294.948,177.275 294.769 C 177.841 294.419,180.901 295.320,180.631 295.757 C 180.519 295.937,180.701 295.980,181.034 295.852 C 181.368 295.724,181.641 295.809,181.641 296.040 C 181.641 296.271,181.933 296.348,182.291 296.210 C 182.763 296.029,182.853 296.103,182.621 296.478 C 182.415 296.812,182.453 296.902,182.728 296.732 C 183.260 296.403,187.533 298.458,187.255 298.909 C 187.143 299.090,187.196 299.213,187.373 299.182 C 188.232 299.033,188.694 299.261,188.437 299.707 C 188.282 299.976,188.295 300.070,188.465 299.916 C 188.923 299.503,190.301 300.358,189.990 300.861 C 189.838 301.107,189.900 301.183,190.135 301.038 C 190.638 300.727,193.077 303.415,192.759 303.930 C 192.634 304.132,192.706 304.297,192.919 304.297 C 193.132 304.297,193.416 304.640,193.549 305.060 C 193.921 306.232,206.629 306.481,206.322 305.310 C 206.193 304.817,206.278 304.659,206.575 304.842 C 206.874 305.027,206.937 304.897,206.765 304.448 C 206.577 303.958,206.646 303.864,207.025 304.098 C 207.378 304.316,207.450 304.267,207.250 303.944 C 206.884 303.351,211.107 299.036,211.696 299.400 C 211.923 299.541,212.109 299.474,212.109 299.252 C 212.109 298.712,214.375 297.562,214.855 297.859 C 215.064 297.988,215.234 297.878,215.234 297.614 C 215.234 297.351,215.343 297.244,215.476 297.377 C 215.609 297.510,215.983 297.354,216.308 297.029 C 216.632 296.705,217.148 296.535,217.453 296.653 C 217.761 296.771,217.903 296.694,217.771 296.480 C 217.553 296.127,218.179 295.942,219.434 295.989 C 219.702 295.999,219.922 295.832,219.922 295.618 C 219.922 295.404,220.186 295.330,220.508 295.454 C 220.830 295.577,221.094 295.490,221.094 295.258 C 221.094 295.027,221.357 294.939,221.680 295.063 C 222.002 295.187,222.266 295.099,222.266 294.868 C 222.266 294.637,222.529 294.549,222.852 294.673 C 223.174 294.796,223.438 294.707,223.438 294.473 C 223.438 294.240,223.789 294.142,224.219 294.254 C 224.649 294.366,224.916 294.320,224.812 294.152 C 224.584 293.783,226.885 293.271,227.384 293.579 C 227.577 293.699,227.734 293.589,227.734 293.337 C 227.734 293.070,228.062 292.963,228.516 293.082 C 228.945 293.194,229.297 293.106,229.297 292.887 C 229.297 292.667,229.731 292.570,230.262 292.671 C 230.852 292.784,231.132 292.703,230.982 292.461 C 230.826 292.207,231.187 292.155,231.990 292.316 C 232.878 292.494,233.162 292.437,232.966 292.121 C 232.771 291.804,233.055 291.748,233.943 291.925 C 234.818 292.100,235.114 292.044,234.925 291.739 C 234.740 291.440,235.036 291.357,235.861 291.478 C 236.562 291.581,236.972 291.501,236.840 291.287 C 236.707 291.070,237.200 290.986,238.033 291.084 C 238.814 291.175,239.453 291.086,239.453 290.886 C 239.453 290.686,240.072 290.623,240.829 290.746 C 241.746 290.895,242.120 290.831,241.949 290.556 C 241.780 290.282,242.239 290.194,243.308 290.296 C 244.196 290.381,244.922 290.291,244.922 290.096 C 244.922 289.901,245.710 289.831,246.673 289.939 C 247.799 290.066,248.336 289.996,248.179 289.742 C 248.021 289.486,248.705 289.411,250.121 289.528 C 251.503 289.643,252.219 289.568,252.069 289.324 C 251.916 289.077,252.866 289.018,254.724 289.161 C 256.622 289.306,257.348 289.259,256.836 289.024 C 256.321 288.788,257.366 288.715,259.899 288.811 C 262.385 288.906,263.558 288.827,263.219 288.588 C 262.886 288.352,265.390 288.278,270.117 288.383 C 274.199 288.474,276.836 288.425,275.977 288.275 C 275.108 288.123,278.016 287.977,282.520 287.946 C 289.439 287.899,290.625 287.805,290.625 287.305 C 290.625 286.982,290.426 286.719,290.184 286.719 C 289.892 286.719,289.809 286.125,289.939 284.968 C 290.064 283.862,289.994 283.306,289.749 283.457 C 289.508 283.606,289.418 283.096,289.512 282.113 C 289.595 281.242,289.550 280.559,289.412 280.596 C 289.098 280.681,282.204 273.788,282.288 273.473 C 282.322 273.346,280.915 273.220,279.163 273.193 C 277.064 273.161,276.243 273.260,276.758 273.483 C 277.262 273.701,276.395 273.787,274.316 273.724 C 272.544 273.671,271.094 273.782,271.094 273.971 C 271.094 274.161,270.135 274.236,268.964 274.139 C 267.652 274.030,266.923 274.107,267.066 274.339 C 267.210 274.571,266.462 274.646,265.113 274.534 C 263.748 274.421,263.016 274.496,263.163 274.734 C 263.309 274.971,262.715 275.038,261.589 274.911 C 260.433 274.781,259.867 274.848,260.021 275.098 C 260.172 275.341,259.728 275.426,258.842 275.323 C 258.061 275.232,257.422 275.320,257.422 275.520 C 257.422 275.720,256.803 275.783,256.046 275.660 C 255.116 275.509,254.754 275.573,254.930 275.857 C 255.101 276.134,254.780 276.217,253.982 276.100 C 253.275 275.996,252.871 276.077,253.006 276.295 C 253.141 276.513,252.737 276.594,252.029 276.490 C 251.321 276.386,250.918 276.467,251.053 276.686 C 251.188 276.905,250.777 276.984,250.055 276.878 C 249.380 276.779,248.828 276.864,248.828 277.066 C 248.828 277.269,248.389 277.351,247.852 277.248 C 247.314 277.145,246.875 277.233,246.875 277.443 C 246.875 277.654,246.441 277.742,245.910 277.641 C 245.326 277.529,245.041 277.611,245.187 277.847 C 245.335 278.087,245.032 278.162,244.406 278.043 C 243.780 277.923,243.477 277.999,243.625 278.238 C 243.772 278.477,243.469 278.553,242.843 278.433 C 242.217 278.314,241.914 278.390,242.062 278.629 C 242.210 278.868,241.907 278.944,241.281 278.824 C 240.718 278.716,240.338 278.757,240.435 278.915 C 240.671 279.296,238.315 279.755,237.790 279.430 C 237.532 279.271,237.497 279.367,237.696 279.689 C 237.932 280.070,237.798 280.145,237.170 279.981 C 236.707 279.860,236.328 279.886,236.328 280.040 C 236.328 280.421,232.378 281.659,231.968 281.406 C 231.788 281.295,231.641 281.409,231.641 281.659 C 231.641 281.911,231.369 282.010,231.034 281.882 C 230.641 281.731,230.525 281.807,230.705 282.097 C 230.893 282.402,230.712 282.474,230.139 282.325 C 229.675 282.203,229.394 282.263,229.515 282.458 C 229.714 282.781,229.516 282.850,228.027 282.969 C 227.759 282.990,227.297 283.238,227.000 283.519 C 226.704 283.799,226.182 283.922,225.840 283.791 C 225.499 283.660,225.349 283.682,225.507 283.840 C 225.890 284.223,223.471 285.223,222.946 284.899 C 222.720 284.759,222.643 284.819,222.774 285.032 C 223.045 285.470,220.436 286.841,219.928 286.527 C 219.747 286.415,219.539 286.477,219.467 286.665 C 219.395 286.852,218.896 287.141,218.359 287.306 L 217.383 287.605 218.359 286.625 C 219.674 285.306,227.219 281.127,227.724 281.439 C 227.944 281.575,228.125 281.533,228.125 281.345 C 228.125 280.831,230.850 279.636,231.337 279.937 C 231.606 280.103,231.648 280.015,231.451 279.697 C 231.245 279.364,231.322 279.256,231.680 279.375 C 231.977 279.474,232.464 279.311,232.762 279.013 C 233.060 278.715,233.554 278.567,233.860 278.684 C 234.168 278.802,234.309 278.725,234.177 278.511 C 233.959 278.159,234.582 277.974,235.836 278.019 C 236.102 278.029,236.206 277.853,236.068 277.629 C 235.909 277.371,236.127 277.302,236.658 277.441 C 237.122 277.562,237.403 277.502,237.282 277.307 C 237.081 276.982,237.740 276.803,238.965 276.848 C 239.233 276.858,239.453 276.691,239.453 276.477 C 239.453 276.263,239.717 276.189,240.039 276.313 C 240.361 276.437,240.625 276.349,240.625 276.118 C 240.625 275.887,240.898 275.802,241.231 275.930 C 241.624 276.081,241.740 276.005,241.561 275.715 C 241.373 275.411,241.554 275.338,242.127 275.488 C 242.667 275.629,242.878 275.559,242.713 275.293 C 242.548 275.026,242.759 274.956,243.299 275.097 C 243.839 275.239,244.049 275.168,243.885 274.902 C 243.720 274.636,243.931 274.565,244.471 274.707 C 245.011 274.848,245.221 274.778,245.057 274.511 C 244.892 274.245,245.102 274.175,245.643 274.316 C 246.106 274.437,246.400 274.399,246.296 274.230 C 246.052 273.835,248.387 273.360,248.929 273.695 C 249.186 273.854,249.221 273.758,249.023 273.436 C 248.787 273.055,248.921 272.980,249.548 273.144 C 250.012 273.265,250.391 273.185,250.391 272.965 C 250.391 272.745,250.742 272.657,251.172 272.770 C 251.660 272.897,251.859 272.819,251.700 272.563 C 251.537 272.300,251.813 272.222,252.469 272.348 C 253.103 272.469,253.399 272.393,253.247 272.148 C 253.098 271.905,253.329 271.837,253.845 271.972 C 254.308 272.093,254.688 272.013,254.688 271.793 C 254.688 271.573,255.039 271.485,255.469 271.598 C 255.898 271.710,256.250 271.622,256.250 271.402 C 256.250 271.182,256.602 271.095,257.032 271.207 C 257.524 271.336,257.718 271.258,257.557 270.996 C 257.385 270.718,257.713 270.664,258.552 270.832 C 259.434 271.008,259.724 270.951,259.532 270.641 C 259.346 270.340,259.584 270.261,260.282 270.395 C 260.901 270.513,261.210 270.438,261.066 270.204 C 260.920 269.967,261.296 269.886,262.033 269.994 C 262.750 270.099,263.145 270.018,263.007 269.795 C 262.870 269.572,263.199 269.499,263.809 269.616 C 264.378 269.725,264.844 269.642,264.844 269.433 C 264.844 269.223,265.362 269.128,265.995 269.221 C 266.658 269.318,267.050 269.233,266.918 269.021 C 266.785 268.805,267.279 268.721,268.111 268.818 C 268.892 268.909,269.531 268.820,269.531 268.620 C 269.531 268.420,270.234 268.351,271.094 268.466 C 272.142 268.607,272.572 268.539,272.400 268.261 C 272.225 267.977,272.868 267.922,274.443 268.084 C 276.077 268.253,276.575 268.205,276.164 267.919 C 275.759 267.637,276.919 267.577,280.033 267.718 C 284.646 267.928,285.417 267.728,285.417 266.321 C 285.417 265.957,285.289 265.739,285.132 265.835 C 284.879 265.991,284.304 265.084,284.213 264.388 C 284.195 264.245,284.020 263.981,283.824 263.802 C 283.615 263.610,283.589 263.718,283.760 264.063 C 283.921 264.385,283.699 264.214,283.268 263.683 C 282.836 263.152,282.585 262.536,282.710 262.316 C 282.835 262.095,282.794 262.045,282.617 262.205 C 282.244 262.543,281.000 260.930,281.188 260.352 C 281.258 260.137,281.184 260.092,281.025 260.251 C 280.678 260.598,279.442 258.961,279.625 258.398 C 279.695 258.184,279.622 258.139,279.462 258.298 C 279.142 258.619,277.874 257.028,278.040 256.514 C 278.097 256.337,277.973 256.298,277.764 256.427 C 277.428 256.635,276.418 255.316,276.381 254.622 C 276.373 254.479,276.207 254.215,276.012 254.036 C 275.803 253.845,275.774 253.952,275.943 254.297 C 276.101 254.619,275.821 254.359,275.322 253.719 C 274.823 253.079,274.406 252.376,274.396 252.157 C 274.387 251.937,274.176 251.799,273.930 251.848 C 273.350 251.965,271.809 249.815,272.180 249.405 C 272.334 249.234,272.255 249.212,272.003 249.356 C 271.551 249.614,269.728 247.470,269.727 246.680 C 269.727 246.465,269.546 246.289,269.325 246.289 C 268.826 246.289,265.959 243.155,266.220 242.894 C 266.325 242.789,266.014 242.368,265.530 241.957 L 264.648 241.211 265.402 242.188 C 265.816 242.725,265.025 241.988,263.644 240.550 C 261.269 238.077,258.203 236.649,258.203 238.015 C 258.203 238.211,257.764 238.288,257.227 238.186 C 256.689 238.083,256.250 238.171,256.250 238.381 C 256.250 238.591,255.811 238.679,255.273 238.576 C 254.736 238.474,254.297 238.561,254.297 238.772 C 254.297 238.982,253.863 239.071,253.332 238.969 C 252.741 238.856,252.462 238.938,252.612 239.180 C 252.762 239.423,252.530 239.491,252.014 239.356 C 251.551 239.235,251.172 239.315,251.172 239.535 C 251.172 239.755,250.820 239.843,250.390 239.730 C 249.903 239.603,249.704 239.681,249.862 239.937 C 250.025 240.200,249.750 240.278,249.093 240.152 C 248.460 240.031,248.164 240.107,248.315 240.352 C 248.465 240.595,248.234 240.663,247.717 240.528 C 247.254 240.407,246.875 240.433,246.875 240.587 C 246.875 240.968,242.925 242.206,242.515 241.953 C 242.335 241.842,242.188 241.956,242.188 242.206 C 242.188 242.457,241.916 242.557,241.581 242.429 C 241.188 242.278,241.072 242.354,241.252 242.644 C 241.440 242.949,241.259 243.021,240.686 242.871 C 240.222 242.750,239.941 242.810,240.062 243.005 C 240.262 243.330,239.607 243.509,238.383 243.465 C 238.117 243.455,237.995 243.604,238.113 243.794 C 238.310 244.112,237.646 244.290,236.430 244.246 C 236.164 244.237,236.061 244.415,236.201 244.642 C 236.366 244.909,236.196 244.955,235.721 244.772 C 235.316 244.617,235.114 244.619,235.272 244.778 C 235.656 245.161,233.237 246.161,232.712 245.836 C 232.457 245.679,232.419 245.773,232.611 246.084 C 232.815 246.413,232.743 246.526,232.403 246.413 C 232.118 246.318,231.553 246.572,231.147 246.978 C 230.741 247.384,230.149 247.617,229.832 247.496 C 229.462 247.354,229.356 247.437,229.536 247.727 C 229.724 248.032,229.597 248.096,229.145 247.922 C 228.694 247.749,228.566 247.813,228.755 248.118 C 228.943 248.423,228.816 248.486,228.364 248.313 C 227.995 248.171,227.793 248.217,227.915 248.414 C 228.134 248.768,226.665 249.454,226.045 249.286 C 225.868 249.239,225.827 249.367,225.953 249.572 C 226.179 249.937,224.725 250.629,224.092 250.458 C 223.915 250.410,223.881 250.551,224.017 250.772 C 224.244 251.138,223.718 251.347,222.920 251.208 C 222.743 251.178,222.710 251.333,222.846 251.553 C 223.072 251.919,222.546 252.128,221.748 251.990 C 221.571 251.959,221.538 252.114,221.674 252.334 C 221.900 252.700,221.374 252.910,220.576 252.771 C 220.399 252.740,220.354 252.877,220.477 253.074 C 220.700 253.436,219.614 254.092,219.014 253.959 C 218.837 253.919,218.798 254.058,218.927 254.268 C 219.153 254.632,217.656 255.710,217.127 255.564 C 216.987 255.525,216.635 255.796,216.346 256.165 C 215.861 256.784,215.881 256.791,216.602 256.254 C 217.031 255.934,215.977 257.060,214.258 258.757 C 212.539 260.454,210.957 261.858,210.742 261.878 C 210.527 261.898,210.352 262.100,210.352 262.328 C 210.352 262.971,208.323 265.224,208.019 264.920 C 207.869 264.771,207.805 264.824,207.875 265.039 C 208.058 265.601,206.822 267.238,206.475 266.892 C 206.316 266.732,206.227 266.777,206.279 266.992 C 206.436 267.638,205.804 268.762,205.418 268.523 C 205.220 268.401,205.091 268.446,205.130 268.623 C 205.264 269.224,204.608 270.309,204.246 270.086 C 204.049 269.964,203.932 270.009,203.986 270.186 C 204.147 270.708,202.621 273.023,202.262 272.801 C 202.082 272.690,201.959 272.743,201.990 272.920 C 202.134 273.752,201.912 274.239,201.502 273.986 C 201.228 273.817,201.157 273.879,201.321 274.144 C 201.583 274.568,200.302 276.172,199.702 276.172 C 199.250 276.172,197.442 273.048,197.591 272.526 C 197.663 272.275,197.592 272.200,197.434 272.358 C 197.046 272.746,195.273 270.301,195.581 269.803 C 195.715 269.587,195.639 269.525,195.414 269.664 C 195.014 269.911,194.336 268.874,194.479 268.233 C 194.518 268.056,194.389 268.011,194.191 268.133 C 193.830 268.356,193.173 267.270,193.307 266.670 C 193.346 266.493,193.207 266.454,192.998 266.583 C 192.628 266.812,191.643 265.434,191.615 264.648 C 191.608 264.434,191.398 264.258,191.149 264.258 C 190.900 264.258,190.316 263.774,189.851 263.184 C 189.386 262.593,189.134 262.109,189.290 262.109 C 189.446 262.109,189.260 261.762,188.876 261.337 C 188.491 260.913,188.054 260.641,187.903 260.734 C 187.753 260.828,186.861 260.120,185.921 259.163 C 184.981 258.205,184.358 257.422,184.537 257.422 C 184.715 257.422,184.647 257.164,184.385 256.848 C 184.124 256.533,183.791 256.313,183.646 256.360 C 183.175 256.513,181.269 254.800,181.556 254.481 C 181.710 254.311,181.657 254.273,181.438 254.397 C 180.930 254.684,178.044 252.555,178.426 252.173 C 178.583 252.016,178.535 251.923,178.320 251.967 C 177.484 252.136,176.918 251.935,177.154 251.553 C 177.290 251.333,177.257 251.178,177.080 251.208 C 176.282 251.347,175.756 251.138,175.983 250.772 C 176.119 250.551,176.085 250.410,175.908 250.458 C 175.275 250.629,173.821 249.937,174.047 249.572 C 174.173 249.367,174.132 249.239,173.955 249.286 C 173.335 249.454,171.866 248.768,172.085 248.414 C 172.207 248.217,172.005 248.171,171.636 248.313 C 171.184 248.486,171.057 248.423,171.245 248.118 C 171.434 247.813,171.306 247.749,170.855 247.922 C 170.403 248.096,170.276 248.032,170.464 247.727 C 170.653 247.422,170.525 247.358,170.073 247.532 C 169.622 247.705,169.494 247.641,169.683 247.336 C 169.871 247.032,169.744 246.968,169.292 247.141 C 168.840 247.315,168.713 247.251,168.902 246.946 C 169.090 246.641,168.963 246.577,168.511 246.751 C 168.059 246.924,167.932 246.860,168.120 246.555 C 168.309 246.250,168.181 246.187,167.730 246.360 C 167.278 246.533,167.151 246.470,167.339 246.165 C 167.528 245.860,167.400 245.796,166.948 245.969 C 166.458 246.158,166.364 246.088,166.598 245.709 C 166.799 245.383,166.766 245.286,166.507 245.446 C 165.982 245.770,163.563 244.770,163.946 244.387 C 164.105 244.229,163.954 244.207,163.613 244.338 C 163.271 244.469,162.749 244.346,162.453 244.065 C 162.156 243.785,161.694 243.537,161.426 243.516 C 159.931 243.396,159.740 243.326,159.958 242.973 C 160.095 242.752,159.938 242.686,159.591 242.820 C 159.256 242.948,158.984 242.848,158.984 242.597 C 158.984 242.346,158.838 242.232,158.658 242.343 C 158.202 242.625,155.458 241.740,155.679 241.382 C 155.779 241.220,155.481 241.188,155.018 241.309 C 154.477 241.450,154.267 241.380,154.432 241.114 C 154.593 240.852,154.399 240.774,153.907 240.902 C 153.477 241.015,153.125 240.927,153.125 240.707 C 153.125 240.487,152.746 240.407,152.283 240.528 C 151.743 240.669,151.533 240.599,151.697 240.332 C 151.859 240.071,151.665 239.992,151.172 240.121 C 150.742 240.233,150.391 240.146,150.391 239.926 C 150.391 239.706,150.012 239.625,149.548 239.747 C 149.032 239.882,148.801 239.814,148.951 239.571 C 149.102 239.326,148.806 239.250,148.172 239.371 C 147.546 239.491,147.243 239.415,147.391 239.176 C 147.539 238.936,147.236 238.861,146.610 238.980 C 145.912 239.114,145.674 239.035,145.860 238.734 C 146.052 238.424,145.762 238.367,144.881 238.543 C 144.078 238.704,143.716 238.652,143.873 238.399 C 144.023 238.155,143.731 238.077,143.111 238.196 C 142.557 238.302,141.991 238.232,141.853 238.042 C 141.715 237.851,140.948 237.750,140.149 237.816 " stroke="none" fill="#6c447c" fill-rule="evenodd"></path><path id="path2" d="M195.069 84.759 C 194.613 84.944,193.890 85.855,193.461 86.785 C 191.892 90.189,191.406 91.336,191.393 91.661 C 191.386 91.843,191.040 92.695,190.625 93.555 C 190.210 94.414,189.864 95.329,189.857 95.588 C 189.850 95.847,189.185 96.160,188.379 96.283 C 187.573 96.407,186.035 96.673,184.961 96.874 C 183.887 97.075,182.041 97.344,180.859 97.471 C 177.685 97.814,176.953 98.429,176.953 100.755 L 176.953 102.665 180.889 106.297 C 185.738 110.771,185.559 110.398,184.887 114.648 C 183.083 126.050,184.608 127.875,191.768 122.882 C 196.612 119.504,199.118 118.746,200.391 120.273 C 201.197 121.241,208.333 124.271,209.258 124.039 C 211.521 123.471,212.326 120.924,211.301 117.576 C 210.674 115.525,209.375 110.172,209.376 109.643 C 209.377 109.388,210.887 107.598,212.732 105.664 C 219.626 98.441,218.990 96.437,209.589 95.754 C 203.650 95.323,203.104 95.072,202.529 92.507 C 202.399 91.931,202.058 91.265,201.771 91.027 C 201.484 90.788,201.132 90.129,200.990 89.561 C 200.484 87.549,198.826 85.232,197.579 84.797 C 196.188 84.312,196.176 84.312,195.069 84.759 M197.584 85.511 C 197.946 85.706,199.367 88.143,200.742 90.925 L 203.242 95.984 208.922 96.456 C 218.336 97.238,218.539 97.808,211.932 104.913 L 208.052 109.086 209.549 114.912 C 211.861 123.908,211.155 124.532,203.183 120.537 C 196.991 117.434,198.375 117.356,192.377 121.143 C 184.827 125.909,184.127 125.412,185.640 116.358 L 186.644 110.352 182.200 106.055 C 177.665 101.671,177.363 101.229,177.873 99.727 C 178.241 98.644,178.462 98.579,184.702 97.722 C 190.789 96.887,190.103 97.434,192.366 91.602 C 194.904 85.064,195.489 84.381,197.584 85.511 M148.199 105.074 C 147.118 105.506,146.884 106.201,146.606 109.812 L 146.374 112.823 143.850 114.299 C 139.138 117.054,139.253 119.431,144.175 121.044 C 146.429 121.782,147.071 122.659,147.623 125.746 C 148.482 130.551,150.488 130.919,153.974 126.912 L 156.047 124.528 158.004 124.788 C 159.080 124.932,160.629 125.145,161.445 125.263 C 164.284 125.672,165.222 123.633,163.574 120.636 C 160.893 115.761,160.971 116.212,162.309 113.340 C 164.448 108.745,163.445 107.392,158.623 108.369 C 154.608 109.183,154.924 109.250,152.613 107.081 C 150.398 105.000,149.455 104.572,148.199 105.074 M152.065 107.823 L 154.634 110.177 158.010 109.330 C 162.728 108.147,163.154 108.549,161.394 112.533 C 159.832 116.068,159.837 116.175,161.719 119.438 C 164.311 123.935,164.004 124.448,159.103 123.796 L 155.684 123.341 153.330 125.935 C 149.955 129.655,149.242 129.412,148.390 124.257 L 147.930 121.467 144.668 119.939 C 140.536 118.002,140.433 117.434,143.848 115.396 C 147.721 113.084,147.656 113.180,147.656 109.733 C 147.656 107.493,147.817 106.535,148.270 106.083 C 149.156 105.196,149.242 105.236,152.065 107.823 M236.208 110.945 C 235.604 111.422,234.550 112.773,233.864 113.949 C 233.178 115.124,232.334 116.554,231.989 117.125 C 231.368 118.151,230.758 119.221,228.830 122.656 C 228.287 123.623,227.511 124.974,227.105 125.658 C 221.281 135.478,220.997 136.186,222.081 138.207 C 223.716 141.258,227.555 140.651,229.650 137.010 C 230.660 135.255,230.283 135.283,237.311 136.436 C 241.116 137.060,241.309 137.171,241.634 138.904 C 242.519 143.620,248.880 144.538,249.473 140.035 C 249.672 138.524,249.429 137.258,247.675 130.664 C 246.724 127.088,245.518 122.284,244.776 119.111 C 243.085 111.888,242.237 110.548,239.173 110.257 C 237.663 110.113,237.095 110.245,236.208 110.945 M241.339 112.012 C 243.016 113.737,249.287 138.988,248.423 140.535 C 246.928 143.209,243.872 141.996,242.668 138.250 L 241.992 136.150 236.035 135.122 L 230.077 134.095 228.851 136.087 C 226.498 139.911,222.656 140.132,222.656 136.443 C 222.656 135.181,235.114 113.136,236.572 111.816 C 237.968 110.553,240.002 110.636,241.339 112.012 M235.483 124.059 C 232.561 129.320,232.472 128.995,237.027 129.687 C 241.022 130.293,240.779 130.830,239.310 124.645 L 238.067 119.407 235.483 124.059 M238.104 124.512 C 238.241 125.317,238.508 126.582,238.697 127.322 C 239.135 129.032,239.150 129.022,236.558 128.698 L 234.378 128.426 235.841 125.739 C 237.529 122.640,237.764 122.512,238.104 124.512 M193.644 140.143 C 192.494 141.321,189.453 145.794,189.453 146.309 C 189.453 146.375,188.750 147.488,187.891 148.782 C 187.031 150.075,186.328 151.238,186.328 151.365 C 186.328 151.492,186.151 151.808,185.934 152.067 C 185.717 152.327,184.278 154.473,182.737 156.836 C 181.195 159.199,179.834 161.221,179.712 161.328 C 179.590 161.436,178.720 162.537,177.778 163.776 C 170.502 173.352,162.234 175.297,150.918 170.097 C 150.241 169.786,149.572 169.531,149.431 169.531 C 149.187 169.531,148.184 169.097,143.359 166.902 C 141.640 166.120,130.631 160.811,127.642 159.322 C 126.391 158.699,124.024 158.939,123.121 159.781 C 121.037 161.722,121.722 162.673,133.462 174.137 C 139.013 179.557,144.494 185.125,145.642 186.510 C 146.790 187.894,148.020 189.372,148.376 189.793 C 148.732 190.214,149.368 190.970,149.788 191.471 C 152.916 195.200,158.628 204.830,160.987 210.352 C 161.630 211.855,162.308 213.438,162.496 213.867 C 162.683 214.297,163.036 215.352,163.281 216.211 C 163.526 217.070,163.888 218.125,164.086 218.555 C 164.595 219.662,165.596 225.321,166.055 229.688 C 166.674 235.581,166.881 236.360,168.058 237.237 C 170.367 238.956,171.915 236.825,172.832 230.664 C 173.885 223.590,175.785 215.625,176.420 215.625 C 177.197 215.625,179.286 217.343,182.573 220.684 C 189.179 227.399,191.524 225.397,189.099 215.110 C 188.685 213.352,188.231 211.123,188.091 210.156 C 187.951 209.189,187.675 207.871,187.479 207.227 C 186.302 203.364,186.429 189.788,187.693 184.375 C 188.618 180.411,190.291 174.105,190.647 173.242 C 190.824 172.813,191.518 170.615,192.189 168.359 C 192.861 166.104,193.566 163.818,193.757 163.281 C 193.948 162.744,194.295 161.514,194.529 160.547 C 194.763 159.580,195.121 158.438,195.325 158.008 C 196.049 156.481,198.368 146.247,198.704 143.094 C 199.148 138.939,196.390 137.331,193.644 140.143 M197.252 140.209 C 198.352 142.265,197.081 148.523,192.486 163.672 C 184.466 190.110,184.000 194.977,187.727 213.437 C 189.463 222.039,189.436 223.828,187.572 223.828 C 187.267 223.828,185.004 221.807,182.543 219.336 C 178.122 214.899,176.668 213.946,175.630 214.807 C 174.745 215.542,172.778 223.549,171.669 230.931 C 170.425 239.210,167.968 239.144,167.184 230.809 C 165.281 210.566,157.414 196.694,135.506 174.949 C 124.368 163.894,122.790 162.062,123.289 160.760 C 123.975 158.973,126.173 159.528,133.984 163.461 C 166.496 179.831,170.880 178.505,190.397 146.397 C 194.233 140.086,196.224 138.288,197.252 140.209 M157.031 140.188 C 144.720 144.211,143.353 160.972,154.836 167.091 C 157.733 168.635,164.780 168.688,167.762 167.188 C 169.782 166.171,174.217 162.081,174.221 161.230 C 174.222 160.962,174.525 160.215,174.893 159.570 C 176.071 157.511,175.860 150.771,174.531 147.978 C 171.635 141.895,163.242 138.158,157.031 140.188 M167.278 142.106 C 179.305 148.030,176.204 165.845,162.873 167.412 C 158.433 167.934,153.050 165.580,150.513 162.008 C 142.288 150.423,154.567 135.846,167.278 142.106 M261.154 145.295 C 259.910 146.115,258.864 148.349,258.402 151.172 C 258.244 152.139,257.985 153.105,257.827 153.320 C 257.668 153.535,257.310 154.854,257.031 156.250 C 256.752 157.646,256.397 158.965,256.242 159.180 C 256.088 159.395,255.842 160.234,255.695 161.046 C 255.549 161.858,255.087 163.595,254.668 164.906 C 253.064 169.925,253.849 171.640,258.478 173.239 C 266.218 175.913,272.564 174.498,274.650 169.633 C 275.433 167.804,275.635 164.467,275.030 163.337 C 274.750 162.814,274.979 162.359,276.043 161.318 C 281.809 155.680,278.596 147.973,269.531 145.696 C 264.247 144.368,262.674 144.293,261.154 145.295 M266.211 145.864 C 274.147 147.260,277.730 150.047,277.733 154.824 C 277.735 158.123,276.759 159.894,274.043 161.523 C 273.435 161.888,273.435 162.018,274.042 163.465 C 275.263 166.379,273.976 170.370,271.200 172.272 C 267.034 175.128,255.078 172.507,255.078 168.739 C 255.078 165.984,260.485 147.111,261.538 146.191 C 262.727 145.152,262.327 145.180,266.211 145.864 M264.877 152.612 C 264.650 153.455,264.356 154.687,264.223 155.350 L 263.982 156.555 266.957 157.256 C 269.896 157.949,269.945 157.948,271.001 157.160 C 273.892 155.004,271.872 152.133,266.905 151.339 L 265.289 151.081 264.877 152.612 M269.436 153.424 C 272.880 155.218,270.396 157.569,266.532 156.172 C 265.108 155.657,265.025 155.404,265.674 153.544 C 266.164 152.138,266.922 152.114,269.436 153.424 M214.850 153.342 C 212.709 154.515,212.130 157.464,213.746 158.969 C 214.679 159.839,214.713 159.847,218.262 159.974 C 223.536 160.163,223.198 163.548,217.773 164.871 C 216.699 165.133,215.645 165.472,215.430 165.625 C 215.215 165.778,213.896 166.121,212.500 166.387 C 211.104 166.653,209.785 167.010,209.570 167.180 C 209.355 167.350,208.444 167.611,207.545 167.759 C 202.555 168.582,202.143 173.722,206.879 176.075 C 207.715 176.490,210.445 177.912,212.946 179.235 C 218.183 182.005,219.888 182.290,221.623 180.683 C 223.747 178.714,222.385 175.882,218.317 173.807 C 217.481 173.380,216.797 172.885,216.797 172.708 C 216.797 172.367,220.393 171.094,221.355 171.094 C 224.978 171.094,230.078 165.840,230.078 162.109 C 230.078 155.842,220.428 150.287,214.850 153.342 M222.649 154.173 C 227.404 155.709,230.028 160.621,228.302 164.753 C 226.875 168.168,224.643 169.302,214.464 171.784 L 213.107 172.115 216.221 173.816 C 221.835 176.883,222.997 178.584,220.616 180.251 C 219.231 181.222,218.569 181.027,212.543 177.870 C 204.855 173.843,204.688 173.716,204.688 171.916 C 204.688 169.627,205.630 169.089,213.256 167.024 C 222.076 164.636,223.145 164.075,223.145 161.837 C 223.145 159.977,221.491 158.984,218.390 158.984 C 214.437 158.984,212.719 157.393,214.275 155.172 C 215.426 153.529,219.245 153.074,222.649 154.173 M262.092 163.027 C 261.863 163.919,261.491 165.232,261.267 165.944 C 260.768 167.531,260.668 167.434,263.495 168.087 C 267.194 168.940,269.148 168.028,269.135 165.453 C 269.125 163.471,268.483 162.965,264.748 161.989 L 262.509 161.405 262.092 163.027 M266.797 163.813 C 268.743 164.714,268.084 167.578,265.932 167.578 C 263.988 167.578,262.044 166.741,262.339 166.031 C 262.476 165.700,262.672 165.078,262.774 164.648 C 263.199 162.863,263.247 162.821,264.550 163.095 C 265.249 163.241,266.260 163.565,266.797 163.813 M241.211 184.438 C 240.352 184.642,239.255 184.891,238.774 184.989 C 237.665 185.217,236.683 186.692,236.952 187.723 C 237.271 188.942,238.408 189.437,241.905 189.878 C 243.672 190.101,245.557 190.440,246.094 190.631 C 246.631 190.822,247.773 191.159,248.633 191.379 C 250.982 191.982,252.204 193.365,253.158 196.503 C 255.004 202.584,260.360 200.619,260.118 193.950 C 260.040 191.796,260.157 191.260,260.872 190.499 C 263.680 187.510,261.367 185.525,254.600 185.117 C 251.748 184.945,248.800 184.620,248.049 184.395 C 246.419 183.904,243.368 183.923,241.211 184.438 M250.142 185.707 C 251.485 186.023,253.382 186.160,254.729 186.038 C 259.641 185.592,263.227 188.833,259.326 190.193 C 258.184 190.591,258.177 190.612,258.772 191.763 C 259.927 193.998,259.195 197.379,257.285 198.630 C 255.801 199.603,254.850 198.894,254.319 196.420 C 253.370 191.992,251.083 190.353,244.336 189.264 C 239.142 188.426,237.891 188.006,237.891 187.102 C 237.891 185.350,245.124 184.527,250.142 185.707 M196.777 194.099 C 196.014 194.873,195.866 197.686,196.468 200.000 C 197.439 203.738,198.147 206.093,198.405 206.445 C 198.563 206.660,198.906 207.627,199.168 208.594 C 199.431 209.561,199.799 210.703,199.988 211.133 C 203.177 218.411,203.194 231.045,200.024 238.086 C 199.831 238.516,199.219 239.867,198.664 241.089 C 197.069 244.605,197.407 246.484,199.634 246.484 C 200.576 246.484,201.539 245.872,204.235 243.555 C 204.735 243.125,205.499 242.473,205.932 242.107 C 208.990 239.522,211.678 241.361,213.477 247.266 C 215.032 252.369,217.504 251.459,218.990 245.236 C 219.519 243.022,220.208 240.657,220.522 239.980 C 220.837 239.303,221.094 238.570,221.094 238.352 C 221.094 234.176,228.803 226.069,236.703 221.938 C 249.843 215.067,251.327 209.341,239.350 211.721 C 221.026 215.362,220.087 215.434,216.141 213.511 C 213.511 212.229,211.850 210.740,208.973 207.086 C 207.681 205.445,206.483 203.923,206.312 203.705 C 206.140 203.487,205.492 202.432,204.872 201.361 C 200.765 194.270,198.560 192.291,196.777 194.099 M219.429 193.995 C 214.602 195.236,212.010 198.524,211.981 203.443 C 211.929 212.414,222.403 216.568,228.840 210.130 C 235.519 203.451,228.625 191.631,219.429 193.995 M200.977 197.089 C 201.836 198.388,203.806 201.376,205.355 203.729 C 213.494 216.096,216.784 217.328,232.813 214.014 C 243.506 211.803,244.078 211.714,245.112 212.107 C 247.495 213.013,245.395 215.714,239.805 218.935 C 227.791 225.856,225.051 228.219,221.902 234.375 C 219.968 238.156,218.285 242.932,217.772 246.094 C 217.090 250.305,216.087 250.233,214.052 245.828 C 210.569 238.290,209.202 237.985,202.930 243.353 C 198.605 247.054,197.679 246.401,199.799 241.142 C 204.638 229.143,204.680 222.336,200.005 208.008 C 196.380 196.897,196.068 194.340,198.373 194.606 C 199.154 194.696,199.805 195.317,200.977 197.089 M225.717 195.670 C 229.864 197.786,231.632 203.002,229.639 207.242 C 226.651 213.598,217.255 213.734,213.982 207.469 C 209.983 199.813,218.013 191.740,225.717 195.670 M129.941 196.199 C 129.265 196.902,128.219 198.052,127.618 198.755 C 126.553 200.002,126.468 200.028,124.257 199.778 C 119.689 199.261,118.278 201.372,120.898 204.803 C 122.404 206.774,122.620 208.215,121.682 210.014 C 120.926 211.463,120.928 213.829,121.685 214.458 C 122.345 215.006,125.670 214.720,126.332 214.059 C 127.165 213.225,128.942 213.682,130.906 215.234 C 134.468 218.050,136.279 216.766,136.319 211.398 C 136.329 209.969,136.767 209.383,138.497 208.489 C 141.726 206.819,141.882 204.589,138.867 203.205 C 135.303 201.568,135.077 201.390,134.533 199.805 C 134.238 198.945,133.993 197.926,133.990 197.540 C 133.984 196.819,132.212 194.922,131.545 194.922 C 131.340 194.922,130.618 195.497,129.941 196.199 M132.325 196.582 C 132.538 196.851,132.996 198.200,133.340 199.581 C 134.081 202.546,133.923 202.377,137.000 203.498 C 140.999 204.955,141.052 205.400,137.518 207.801 L 135.240 209.347 134.965 212.459 C 134.611 216.457,134.241 216.609,130.982 214.093 L 128.473 212.156 125.560 213.183 C 121.721 214.537,121.461 214.293,122.592 210.399 C 123.665 206.708,123.715 207.100,121.813 204.343 C 119.656 201.218,119.964 200.786,124.364 200.770 L 127.539 200.758 129.232 198.426 C 130.935 196.081,131.606 195.680,132.325 196.582 M135.711 239.169 C 131.242 243.865,129.597 245.705,126.030 250.000 C 124.156 252.256,122.323 254.453,121.957 254.883 C 120.960 256.052,116.321 261.901,115.455 263.079 C 115.040 263.646,114.305 264.568,113.823 265.129 C 111.482 267.853,112.361 268.604,118.250 268.912 C 129.091 269.479,136.396 270.738,148.633 274.149 C 152.774 275.303,153.800 275.827,151.367 275.545 C 150.293 275.421,148.887 275.156,148.242 274.957 C 147.181 274.630,142.813 273.977,135.352 273.031 C 131.399 272.529,118.925 271.906,117.880 272.157 C 116.745 272.430,109.463 279.785,109.170 280.955 C 109.048 281.440,108.912 283.507,108.869 285.548 L 108.789 289.258 124.023 289.537 C 132.402 289.691,141.279 289.985,143.750 290.191 C 151.766 290.858,159.929 291.767,161.328 292.148 C 162.080 292.352,164.189 292.779,166.016 293.096 C 174.135 294.504,177.926 295.673,184.407 298.764 C 188.229 300.588,190.558 302.540,191.937 305.078 L 192.892 306.836 199.916 306.942 L 206.940 307.049 207.951 305.116 C 211.262 298.784,224.752 293.755,244.336 291.551 C 247.129 291.236,250.557 290.809,251.953 290.601 C 255.751 290.036,270.592 289.453,281.177 289.453 C 292.346 289.453,291.626 289.796,291.225 284.673 C 290.876 280.219,290.711 279.913,286.351 275.622 L 282.815 272.143 274.708 272.405 C 266.386 272.674,264.393 272.870,256.641 274.181 C 249.319 275.419,245.576 276.168,244.421 276.627 C 243.823 276.864,243.233 276.957,243.110 276.834 C 242.986 276.710,243.914 276.324,245.173 275.976 C 246.431 275.627,247.813 275.182,248.242 274.986 C 248.672 274.791,250.166 274.354,251.563 274.017 C 252.959 273.679,255.508 273.046,257.227 272.610 C 267.016 270.124,270.234 269.616,279.099 269.156 C 288.019 268.694,288.770 268.250,286.121 265.008 C 285.609 264.380,284.922 263.516,284.595 263.086 C 282.680 260.569,278.584 255.481,278.014 254.911 C 277.645 254.543,277.342 254.122,277.340 253.976 C 277.338 253.830,276.760 253.096,276.055 252.344 C 275.351 251.592,273.834 249.839,272.684 248.450 C 268.188 243.013,262.134 236.740,261.142 236.491 C 259.337 236.038,247.007 238.814,242.773 240.627 C 242.344 240.811,241.289 241.172,240.430 241.430 C 239.570 241.688,238.691 242.029,238.477 242.188 C 238.262 242.346,237.423 242.690,236.612 242.951 C 225.801 246.434,213.168 256.205,204.380 267.881 C 204.012 268.370,203.535 268.985,203.319 269.248 C 203.103 269.511,202.312 270.645,201.561 271.767 C 199.870 274.294,200.063 274.315,198.014 271.387 C 192.921 264.110,186.880 257.362,182.227 253.754 C 180.938 252.754,179.619 251.701,179.297 251.414 C 176.802 249.190,160.239 241.016,158.229 241.016 C 157.994 241.016,157.497 240.847,157.124 240.641 C 156.207 240.134,150.183 238.378,148.242 238.051 C 147.383 237.907,146.504 237.659,146.289 237.500 C 145.904 237.216,140.470 236.328,139.113 236.328 C 138.728 236.328,137.197 237.606,135.711 239.169 M143.493 237.915 C 168.338 242.960,185.225 253.844,197.852 272.949 C 200.104 276.356,199.839 276.329,201.758 273.344 C 213.907 254.451,231.710 242.964,256.723 237.882 L 260.742 237.065 264.844 241.307 C 270.555 247.213,286.719 266.648,286.719 267.610 C 286.719 267.741,283.950 267.960,280.566 268.097 C 262.410 268.833,238.069 275.700,222.353 284.521 C 217.773 287.092,217.072 287.768,221.077 285.751 C 234.906 278.786,261.164 273.058,279.304 273.048 L 282.241 273.047 286.053 276.873 L 289.865 280.700 290.271 284.334 C 290.494 286.333,290.587 288.059,290.477 288.168 C 290.368 288.278,283.632 288.515,275.510 288.696 C 236.572 289.560,211.582 295.269,207.361 304.265 L 206.445 306.218 199.941 306.234 L 193.436 306.250 193.021 305.060 C 189.549 295.099,162.478 288.918,120.996 288.613 L 109.375 288.527 109.387 287.525 C 109.394 286.974,109.570 285.208,109.778 283.600 L 110.158 280.676 113.966 276.821 L 117.773 272.966 123.633 273.197 C 144.179 274.007,164.715 278.726,179.492 286.033 C 183.347 287.939,181.396 286.579,176.367 283.854 C 161.279 275.680,136.304 268.766,119.434 268.093 C 116.050 267.959,113.281 267.742,113.281 267.612 C 113.281 266.257,137.997 237.109,139.145 237.109 C 139.355 237.109,141.311 237.472,143.493 237.915 " stroke="none" fill="#f1bcb8" fill-rule="evenodd"></path><path id="path3" d="M136.472 239.941 C 131.404 245.156,122.884 255.192,116.076 263.965 L 113.273 267.578 115.718 267.506 L 118.164 267.434 116.097 267.290 L 114.030 267.146 116.668 263.749 C 128.343 248.714,138.026 238.007,140.148 237.784 L 141.602 237.631 140.223 237.566 C 139.010 237.508,138.560 237.792,136.472 239.941 M259.821 237.782 C 261.626 237.973,267.640 244.408,278.542 257.813 C 285.073 265.842,285.757 266.816,285.137 267.208 C 284.700 267.484,284.781 267.568,285.494 267.572 C 286.671 267.580,286.476 267.261,281.307 260.742 C 269.439 245.773,261.750 237.477,259.826 237.566 L 258.398 237.631 259.821 237.782 M142.773 238.281 C 144.426 238.702,145.844 238.702,144.531 238.281 C 143.994 238.109,143.115 237.972,142.578 237.976 C 141.701 237.982,141.721 238.013,142.773 238.281 M147.461 239.285 C 148.535 239.584,149.590 239.814,149.805 239.795 C 150.466 239.739,147.121 238.732,146.289 238.737 C 145.859 238.740,146.387 238.986,147.461 239.285 M252.148 239.063 C 251.153 239.490,252.180 239.490,253.516 239.063 C 254.301 238.811,254.339 238.747,253.711 238.738 C 253.281 238.732,252.578 238.878,252.148 239.063 M248.633 240.054 C 247.092 240.587,247.090 240.591,248.438 240.364 C 250.031 240.095,251.660 239.500,250.781 239.508 C 250.459 239.511,249.492 239.756,248.633 240.054 M150.977 240.234 C 151.406 240.419,152.021 240.570,152.344 240.570 C 152.713 240.570,152.641 240.446,152.148 240.234 C 151.719 240.050,151.104 239.899,150.781 239.899 C 150.412 239.899,150.484 240.023,150.977 240.234 M155.634 241.628 C 157.122 242.147,158.406 242.505,158.488 242.423 C 158.669 242.243,153.927 240.613,153.342 240.654 C 153.115 240.670,154.147 241.108,155.634 241.628 M244.214 241.282 C 243.287 241.610,242.598 241.947,242.683 242.032 C 242.767 242.116,243.789 241.847,244.953 241.434 C 246.118 241.020,246.807 240.683,246.484 240.684 C 246.162 240.686,245.140 240.955,244.214 241.282 M237.500 243.872 C 235.244 244.795,233.047 245.774,232.617 246.047 C 231.582 246.705,232.265 246.466,236.914 244.544 C 242.140 242.384,242.445 242.244,241.992 242.218 C 241.777 242.205,239.756 242.950,237.500 243.872 M159.375 242.903 C 159.697 243.102,160.400 243.382,160.938 243.526 C 161.616 243.708,161.735 243.677,161.328 243.425 C 161.006 243.226,160.303 242.946,159.766 242.802 C 159.087 242.620,158.968 242.651,159.375 242.903 M167.568 246.510 C 179.913 252.502,187.851 259.473,196.657 272.051 C 198.281 274.370,199.607 276.114,199.604 275.927 C 199.575 274.196,187.926 260.089,183.160 256.014 C 178.169 251.744,164.507 243.714,162.310 243.758 C 162.092 243.762,164.458 245.001,167.568 246.510 M228.220 248.229 C 218.266 253.573,206.864 264.630,201.052 274.574 C 199.904 276.538,200.591 275.950,201.989 273.772 C 209.229 262.490,219.138 253.137,229.199 248.089 C 230.542 247.415,231.641 246.778,231.641 246.674 C 231.641 246.389,231.680 246.371,228.220 248.229 M120.215 267.861 C 120.913 267.947,122.056 267.947,122.754 267.861 C 123.452 267.774,122.881 267.703,121.484 267.703 C 120.088 267.703,119.517 267.774,120.215 267.861 M277.246 267.864 C 278.159 267.946,279.653 267.946,280.566 267.864 C 281.479 267.782,280.732 267.715,278.906 267.715 C 277.080 267.715,276.333 267.782,277.246 267.864 M124.902 268.244 C 125.386 268.338,126.177 268.338,126.660 268.244 C 127.144 268.151,126.748 268.075,125.781 268.075 C 124.814 268.075,124.419 268.151,124.902 268.244 M272.949 268.244 C 273.433 268.338,274.224 268.338,274.707 268.244 C 275.190 268.151,274.795 268.075,273.828 268.075 C 272.861 268.075,272.466 268.151,272.949 268.244 M128.613 268.629 C 128.989 268.727,129.604 268.727,129.980 268.629 C 130.356 268.530,130.049 268.450,129.297 268.450 C 128.545 268.450,128.237 268.530,128.613 268.629 M270.020 268.629 C 270.396 268.727,271.011 268.727,271.387 268.629 C 271.763 268.530,271.455 268.450,270.703 268.450 C 269.951 268.450,269.644 268.530,270.020 268.629 M265.820 269.141 C 264.196 269.554,265.795 269.572,267.773 269.163 C 269.087 268.891,269.149 268.840,268.164 268.841 C 267.520 268.842,266.465 268.977,265.820 269.141 M134.180 269.531 C 135.832 269.952,137.250 269.952,135.938 269.531 C 135.400 269.359,134.521 269.222,133.984 269.226 C 133.107 269.232,133.127 269.263,134.180 269.531 M261.133 270.108 C 260.059 270.384,259.531 270.614,259.961 270.619 C 260.391 270.624,261.621 270.402,262.695 270.126 C 263.770 269.850,264.297 269.620,263.867 269.615 C 263.438 269.610,262.207 269.832,261.133 270.108 M137.891 270.313 C 138.428 270.485,139.219 270.625,139.648 270.625 C 140.267 270.625,140.226 270.560,139.453 270.313 C 138.916 270.140,138.125 270.000,137.695 270.000 C 137.077 270.000,137.117 270.065,137.891 270.313 M144.693 271.871 C 147.038 272.519,149.024 272.982,149.105 272.900 C 149.286 272.719,143.701 271.193,141.797 270.902 C 141.045 270.788,142.348 271.224,144.693 271.871 M256.836 271.094 C 255.841 271.521,256.868 271.521,258.203 271.094 C 258.988 270.842,259.026 270.779,258.398 270.770 C 257.969 270.763,257.266 270.909,256.836 271.094 M251.758 272.476 C 250.217 273.009,250.215 273.013,251.563 272.786 C 253.156 272.517,254.785 271.922,253.906 271.930 C 253.584 271.933,252.617 272.178,251.758 272.476 M113.982 276.856 L 110.239 280.666 109.955 283.319 C 109.799 284.779,109.757 286.059,109.862 286.164 C 109.967 286.269,110.173 285.137,110.319 283.649 L 110.586 280.943 114.069 277.294 C 117.533 273.664,117.565 273.643,119.811 273.403 L 122.070 273.162 119.897 273.104 L 117.724 273.047 113.982 276.856 M155.260 275.000 C 158.475 276.054,161.170 276.850,161.250 276.771 C 161.436 276.585,150.604 273.041,149.927 273.066 C 149.645 273.077,152.045 273.947,155.260 275.000 M244.784 274.465 C 242.453 275.217,240.612 275.898,240.694 275.980 C 240.776 276.062,242.947 275.450,245.519 274.619 C 248.091 273.789,249.932 273.107,249.609 273.104 C 249.287 273.101,247.116 273.713,244.784 274.465 M279.951 273.334 C 282.605 273.521,289.290 279.803,289.562 282.364 L 289.712 283.789 289.778 282.248 C 289.840 280.789,289.640 280.503,286.014 276.877 L 282.184 273.047 280.057 273.119 L 277.930 273.191 279.951 273.334 M124.503 273.719 C 125.196 273.806,126.427 273.807,127.237 273.723 C 128.048 273.638,127.480 273.567,125.977 273.566 C 124.473 273.564,123.810 273.633,124.503 273.719 M273.145 273.722 C 273.950 273.806,275.269 273.806,276.074 273.722 C 276.880 273.638,276.221 273.569,274.609 273.569 C 272.998 273.569,272.339 273.638,273.145 273.722 M130.176 274.108 C 130.767 274.197,131.733 274.197,132.324 274.108 C 132.915 274.018,132.432 273.945,131.250 273.945 C 130.068 273.945,129.585 274.018,130.176 274.108 M268.462 274.108 C 269.056 274.198,269.935 274.196,270.416 274.103 C 270.896 274.010,270.410 273.937,269.336 273.940 C 268.262 273.943,267.869 274.019,268.462 274.108 M134.282 274.495 C 134.768 274.588,135.471 274.585,135.844 274.487 C 136.218 274.389,135.820 274.313,134.961 274.317 C 134.102 274.322,133.796 274.402,134.282 274.495 M264.556 274.499 C 265.150 274.589,266.029 274.586,266.509 274.494 C 266.990 274.401,266.504 274.328,265.430 274.330 C 264.355 274.333,263.962 274.409,264.556 274.499 M136.751 274.757 C 136.841 274.838,138.145 275.002,139.648 275.123 C 141.750 275.291,142.021 275.263,140.820 274.998 C 139.241 274.651,136.451 274.485,136.751 274.757 M261.235 274.886 C 261.721 274.979,262.424 274.976,262.798 274.878 C 263.171 274.780,262.773 274.704,261.914 274.708 C 261.055 274.712,260.749 274.792,261.235 274.886 M258.301 275.269 C 258.677 275.368,259.292 275.368,259.668 275.269 C 260.044 275.171,259.736 275.091,258.984 275.091 C 258.232 275.091,257.925 275.171,258.301 275.269 M143.066 275.660 C 143.442 275.758,144.058 275.758,144.434 275.660 C 144.810 275.562,144.502 275.481,143.750 275.481 C 142.998 275.481,142.690 275.562,143.066 275.660 M251.172 276.367 C 249.990 276.641,249.375 276.878,249.805 276.892 C 250.234 276.907,251.641 276.681,252.930 276.390 C 254.219 276.099,254.834 275.863,254.297 275.865 C 253.760 275.867,252.354 276.093,251.172 276.367 M235.423 277.788 C 233.744 278.446,232.435 279.049,232.514 279.129 C 232.654 279.268,238.700 277.030,239.030 276.717 C 239.438 276.329,238.237 276.686,235.423 277.788 M152.344 277.344 C 152.881 277.516,153.672 277.656,154.102 277.656 C 154.720 277.656,154.680 277.591,153.906 277.344 C 153.369 277.172,152.578 277.031,152.148 277.031 C 151.530 277.031,151.570 277.096,152.344 277.344 M163.088 277.677 C 163.948 278.076,165.090 278.516,165.627 278.655 C 166.163 278.794,165.898 278.581,165.037 278.182 C 164.177 277.784,163.035 277.344,162.498 277.205 C 161.962 277.066,162.227 277.278,163.088 277.677 M244.141 277.791 C 243.389 277.999,241.403 278.532,239.729 278.976 C 238.054 279.419,236.749 279.848,236.829 279.928 C 236.908 280.007,239.245 279.472,242.022 278.738 C 244.799 278.004,246.719 277.406,246.289 277.409 C 245.859 277.412,244.893 277.584,244.141 277.791 M156.836 278.348 C 157.910 278.647,158.965 278.876,159.180 278.858 C 159.841 278.801,156.496 277.794,155.664 277.799 C 155.234 277.802,155.762 278.049,156.836 278.348 M163.659 280.287 C 165.908 281.010,167.816 281.533,167.898 281.451 C 168.076 281.273,160.562 278.891,159.976 278.940 C 159.753 278.959,161.410 279.565,163.659 280.287 M168.750 279.956 C 171.630 281.277,172.934 281.764,172.461 281.340 C 172.001 280.929,167.258 278.892,166.869 278.938 C 166.722 278.956,167.568 279.414,168.750 279.956 M229.688 280.273 C 228.721 280.791,228.105 281.215,228.320 281.215 C 228.535 281.215,229.502 280.791,230.469 280.273 C 231.436 279.756,232.051 279.332,231.836 279.332 C 231.621 279.332,230.654 279.756,229.688 280.273 M233.667 280.736 C 232.740 281.063,232.051 281.400,232.136 281.485 C 232.220 281.569,233.242 281.300,234.406 280.887 C 235.571 280.473,236.260 280.136,235.938 280.138 C 235.615 280.139,234.594 280.408,233.667 280.736 M222.949 283.620 C 220.640 284.915,218.750 286.063,218.750 286.171 C 218.750 286.278,219.911 285.717,221.330 284.923 C 222.749 284.130,224.815 282.982,225.920 282.372 C 227.025 281.763,227.754 281.264,227.539 281.264 C 227.324 281.264,225.259 282.324,222.949 283.620 M229.370 282.298 C 228.444 282.626,227.755 282.963,227.839 283.047 C 228.017 283.226,231.641 282.036,231.641 281.799 C 231.641 281.555,231.196 281.652,229.370 282.298 M173.390 283.798 C 174.546 284.346,175.564 284.722,175.653 284.634 C 175.741 284.545,175.059 284.168,174.137 283.795 C 171.465 282.715,171.110 282.716,173.390 283.798 M175.586 283.090 C 175.801 283.310,177.207 284.155,178.711 284.970 C 180.215 285.784,181.270 286.270,181.055 286.051 C 180.840 285.831,179.434 284.985,177.930 284.171 C 176.426 283.357,175.371 282.870,175.586 283.090 M223.242 284.937 C 221.309 285.881,219.833 286.668,219.963 286.686 C 220.093 286.704,221.851 285.936,223.869 284.980 C 225.888 284.024,227.363 283.237,227.148 283.231 C 226.934 283.225,225.176 283.993,223.242 284.937 M289.942 285.352 C 289.947 286.211,290.027 286.517,290.120 286.031 C 290.213 285.545,290.210 284.842,290.112 284.468 C 290.014 284.095,289.938 284.492,289.942 285.352 M176.204 284.915 C 176.602 285.279,181.250 287.491,181.250 287.316 C 181.250 287.097,176.737 284.766,176.313 284.766 C 176.164 284.766,176.115 284.833,176.204 284.915 M109.381 287.598 C 109.375 288.231,110.013 288.275,118.066 288.192 L 126.758 288.102 118.377 287.988 C 112.279 287.906,109.914 287.744,109.692 287.394 C 109.479 287.058,109.385 287.119,109.381 287.598 M278.635 288.182 C 280.956 288.252,284.647 288.251,286.838 288.182 C 289.028 288.112,287.129 288.056,282.617 288.056 C 278.105 288.056,276.313 288.113,278.635 288.182 M130.957 288.571 C 132.407 288.646,134.780 288.646,136.230 288.571 C 137.681 288.496,136.494 288.434,133.594 288.434 C 130.693 288.434,129.507 288.496,130.957 288.571 M265.332 288.571 C 266.782 288.646,269.155 288.646,270.605 288.571 C 272.056 288.496,270.869 288.434,267.969 288.434 C 265.068 288.434,263.882 288.496,265.332 288.571 M140.723 288.956 C 141.528 289.041,142.847 289.041,143.652 288.956 C 144.458 288.872,143.799 288.803,142.188 288.803 C 140.576 288.803,139.917 288.872,140.723 288.956 M257.725 288.958 C 258.644 289.041,260.050 289.040,260.850 288.956 C 261.650 288.872,260.898 288.804,259.180 288.806 C 257.461 288.807,256.806 288.876,257.725 288.958 M146.394 289.346 C 147.096 289.433,148.150 289.431,148.737 289.342 C 149.324 289.252,148.750 289.181,147.461 289.184 C 146.172 289.186,145.692 289.259,146.394 289.346 M252.832 289.342 C 253.423 289.432,254.390 289.432,254.980 289.342 C 255.571 289.253,255.088 289.180,253.906 289.180 C 252.725 289.180,252.241 289.253,252.832 289.342 M150.684 289.729 C 151.167 289.822,151.958 289.822,152.441 289.729 C 152.925 289.636,152.529 289.560,151.563 289.560 C 150.596 289.560,150.200 289.636,150.684 289.729 M248.931 289.733 C 249.525 289.823,250.404 289.821,250.884 289.728 C 251.365 289.635,250.879 289.562,249.805 289.565 C 248.730 289.568,248.337 289.644,248.931 289.733 M154.395 290.113 C 154.771 290.211,155.386 290.211,155.762 290.113 C 156.138 290.015,155.830 289.934,155.078 289.934 C 154.326 289.934,154.019 290.015,154.395 290.113 M245.610 290.120 C 246.096 290.213,246.799 290.210,247.173 290.112 C 247.546 290.014,247.148 289.938,246.289 289.942 C 245.430 289.947,245.124 290.027,245.610 290.120 M157.129 290.504 C 157.505 290.602,158.120 290.602,158.496 290.504 C 158.872 290.405,158.564 290.325,157.813 290.325 C 157.061 290.325,156.753 290.405,157.129 290.504 M242.485 290.511 C 242.971 290.604,243.674 290.601,244.048 290.503 C 244.421 290.405,244.023 290.329,243.164 290.333 C 242.305 290.337,241.999 290.417,242.485 290.511 M159.863 290.894 C 160.239 290.993,160.854 290.993,161.230 290.894 C 161.606 290.796,161.299 290.716,160.547 290.716 C 159.795 290.716,159.487 290.796,159.863 290.894 M235.742 291.406 C 234.118 291.820,235.717 291.838,237.695 291.429 C 239.009 291.157,239.071 291.106,238.086 291.107 C 237.441 291.107,236.387 291.242,235.742 291.406 M165.430 291.797 C 167.082 292.217,168.500 292.217,167.188 291.797 C 166.650 291.625,165.771 291.487,165.234 291.491 C 164.357 291.498,164.377 291.529,165.430 291.797 M230.078 292.578 C 229.305 292.826,229.264 292.891,229.883 292.891 C 230.313 292.891,231.104 292.750,231.641 292.578 C 232.414 292.330,232.455 292.265,231.836 292.265 C 231.406 292.265,230.615 292.406,230.078 292.578 M171.094 292.969 C 172.429 293.396,173.456 293.396,172.461 292.969 C 172.031 292.784,171.328 292.638,170.898 292.645 C 170.270 292.654,170.309 292.717,171.094 292.969 M224.805 293.960 C 223.264 294.493,223.261 294.497,224.609 294.270 C 226.203 294.001,227.832 293.406,226.953 293.414 C 226.631 293.417,225.664 293.663,224.805 293.960 M178.096 294.948 C 179.907 295.574,181.456 296.018,181.539 295.935 C 181.716 295.758,175.767 293.736,175.194 293.779 C 174.980 293.796,176.286 294.321,178.096 294.948 M217.383 296.463 C 216.523 296.870,215.996 297.204,216.211 297.205 C 216.744 297.209,219.826 295.766,219.336 295.742 C 219.121 295.732,218.242 296.056,217.383 296.463 M185.306 297.932 C 187.347 298.998,189.636 300.585,190.863 301.783 C 192.011 302.904,192.782 303.506,192.577 303.122 C 191.622 301.339,183.766 296.044,182.167 296.107 C 181.985 296.114,183.397 296.935,185.306 297.932 M213.184 298.270 C 211.669 299.092,211.841 299.376,213.379 298.593 C 214.851 297.844,215.112 297.650,214.616 297.672 C 214.419 297.680,213.774 297.950,213.184 298.270 M209.370 301.019 C 208.312 302.009,207.133 303.498,206.750 304.329 L 206.055 305.839 199.929 305.849 C 194.067 305.859,193.792 305.824,193.545 305.049 C 193.208 303.985,192.934 304.275,193.225 305.388 C 193.446 306.232,193.581 306.250,199.815 306.250 L 206.180 306.250 207.031 304.492 C 207.500 303.525,208.787 301.943,209.892 300.976 C 210.997 300.010,211.764 299.219,211.598 299.219 C 211.431 299.219,210.429 300.029,209.370 301.019 " stroke="none" fill="#381745" fill-rule="evenodd"></path><path id="path4" d="M137.286 238.770 L 135.742 240.430 137.402 238.886 C 138.946 237.450,139.242 237.109,138.946 237.109 C 138.883 237.109,138.136 237.856,137.286 238.770 M114.556 267.858 C 115.150 267.948,116.029 267.946,116.509 267.853 C 116.990 267.760,116.504 267.687,115.430 267.690 C 114.355 267.693,113.962 267.769,114.556 267.858 M114.534 288.571 C 115.974 288.645,118.435 288.646,120.002 288.572 C 121.569 288.497,120.391 288.436,117.383 288.435 C 114.375 288.435,113.093 288.496,114.534 288.571 M279.395 288.570 C 280.630 288.647,282.651 288.647,283.887 288.570 C 285.122 288.492,284.111 288.429,281.641 288.429 C 279.170 288.429,278.159 288.492,279.395 288.570 M136.035 288.941 C 136.411 289.039,137.026 289.039,137.402 288.941 C 137.778 288.843,137.471 288.763,136.719 288.763 C 135.967 288.763,135.659 288.843,136.035 288.941 " stroke="none" fill="#9a80a2" fill-rule="evenodd"></path></g></svg>